<svg width="100" height="150" viewBox="0 0 100 150" fill="none" xmlns="http://www.w3.org/2000/svg">
    <path d="M25 150C38.8071 150 50 138.807 50 125V100H25C11.1929 100 0 111.193 0 125C0 138.807 11.1929 150 25 150Z" fill="#0ACF83"/>
    <path d="M0 75C0 61.1929 11.1929 50 25 50H50V100H25C11.1929 100 0 88.8071 0 75Z" fill="#A259FF"/>
    <path d="M0 25C0 11.1929 11.1929 0 25 0H50V50H25C11.1929 50 0 38.8071 0 25Z" fill="#F24E1E"/>
    <path d="M50 0H75C88.8071 0 100 11.1929 100 25C100 38.8071 88.8071 50 75 50H50V0Z" fill="#FF7262"/>
    <path d="M100 75C100 88.8071 88.8071 100 75 100C61.1929 100 50 88.8071 50 75C50 61.1929 61.1929 50 75 50C88.8071 50 100 61.1929 100 75Z" fill="#1ABCFE"/>
</svg>
